<mxfile host="app.diagrams.net" modified="2023-08-28T14:43:32.817Z" agent="Mozilla/5.0 (Windows NT 10.0; Win64; x64) AppleWebKit/537.36 (KHTML, like Gecko) Chrome/116.0.0.0 Safari/537.36" etag="Q5Y8KIAGQ_Ku2zBiPB2m" version="21.6.9" type="device">
  <diagram id="C5RBs43oDa-KdzZeNtuy" name="Page-1">
    <mxGraphModel dx="874" dy="1647" grid="1" gridSize="10" guides="1" tooltips="1" connect="1" arrows="1" fold="1" page="1" pageScale="1" pageWidth="827" pageHeight="1169" math="0" shadow="0">
      <root>
        <mxCell id="WIyWlLk6GJQsqaUBKTNV-0" />
        <mxCell id="WIyWlLk6GJQsqaUBKTNV-1" parent="WIyWlLk6GJQsqaUBKTNV-0" />
        <mxCell id="d7tN3AXUyghyacwVmcYG-6" value="" style="edgeStyle=orthogonalEdgeStyle;rounded=0;orthogonalLoop=1;jettySize=auto;html=1;" edge="1" parent="WIyWlLk6GJQsqaUBKTNV-1" source="d7tN3AXUyghyacwVmcYG-0" target="d7tN3AXUyghyacwVmcYG-1">
          <mxGeometry relative="1" as="geometry" />
        </mxCell>
        <mxCell id="d7tN3AXUyghyacwVmcYG-0" value="" style="ellipse;whiteSpace=wrap;html=1;aspect=fixed;fillColor=#000000;" vertex="1" parent="WIyWlLk6GJQsqaUBKTNV-1">
          <mxGeometry x="370" y="-1110" width="50" height="50" as="geometry" />
        </mxCell>
        <mxCell id="d7tN3AXUyghyacwVmcYG-7" style="edgeStyle=orthogonalEdgeStyle;rounded=0;orthogonalLoop=1;jettySize=auto;html=1;" edge="1" parent="WIyWlLk6GJQsqaUBKTNV-1" source="d7tN3AXUyghyacwVmcYG-1">
          <mxGeometry relative="1" as="geometry">
            <mxPoint x="395" y="-930" as="targetPoint" />
          </mxGeometry>
        </mxCell>
        <mxCell id="d7tN3AXUyghyacwVmcYG-1" value="&quot;Ingrese longitudes del rectangulo&quot;" style="shape=document;whiteSpace=wrap;html=1;boundedLbl=1;" vertex="1" parent="WIyWlLk6GJQsqaUBKTNV-1">
          <mxGeometry x="335" y="-1030" width="120" height="80" as="geometry" />
        </mxCell>
        <mxCell id="d7tN3AXUyghyacwVmcYG-8" value="" style="edgeStyle=orthogonalEdgeStyle;rounded=0;orthogonalLoop=1;jettySize=auto;html=1;" edge="1" parent="WIyWlLk6GJQsqaUBKTNV-1" source="d7tN3AXUyghyacwVmcYG-2" target="d7tN3AXUyghyacwVmcYG-3">
          <mxGeometry relative="1" as="geometry" />
        </mxCell>
        <mxCell id="d7tN3AXUyghyacwVmcYG-2" value="lado1, lado2" style="shape=parallelogram;perimeter=parallelogramPerimeter;whiteSpace=wrap;html=1;fixedSize=1;" vertex="1" parent="WIyWlLk6GJQsqaUBKTNV-1">
          <mxGeometry x="335" y="-920" width="120" height="60" as="geometry" />
        </mxCell>
        <mxCell id="d7tN3AXUyghyacwVmcYG-9" style="edgeStyle=orthogonalEdgeStyle;rounded=0;orthogonalLoop=1;jettySize=auto;html=1;" edge="1" parent="WIyWlLk6GJQsqaUBKTNV-1" source="d7tN3AXUyghyacwVmcYG-3">
          <mxGeometry relative="1" as="geometry">
            <mxPoint x="395" y="-740" as="targetPoint" />
          </mxGeometry>
        </mxCell>
        <mxCell id="d7tN3AXUyghyacwVmcYG-3" value="diagonal &amp;lt;- raÃ­z cuadrada de (lado1 * lado1 + lado2 * lado2) &lt;br&gt;superficie &amp;lt;- lado1 * lado2&lt;br&gt;perimetro &amp;lt;- 2 * (lado1 + lado2)" style="rounded=0;whiteSpace=wrap;html=1;" vertex="1" parent="WIyWlLk6GJQsqaUBKTNV-1">
          <mxGeometry x="232.5" y="-830" width="325" height="70" as="geometry" />
        </mxCell>
        <mxCell id="d7tN3AXUyghyacwVmcYG-10" value="" style="edgeStyle=orthogonalEdgeStyle;rounded=0;orthogonalLoop=1;jettySize=auto;html=1;" edge="1" parent="WIyWlLk6GJQsqaUBKTNV-1" source="d7tN3AXUyghyacwVmcYG-4" target="d7tN3AXUyghyacwVmcYG-5">
          <mxGeometry relative="1" as="geometry" />
        </mxCell>
        <mxCell id="d7tN3AXUyghyacwVmcYG-4" value="&quot;La diagonal principal del rectangulo es:&quot;, diagonal&lt;br&gt;&quot;La superficie del rectangulo es&quot;, superficie&lt;br&gt;&quot;El perimetro del rectangulo es&quot;, perimetro" style="shape=document;whiteSpace=wrap;html=1;boundedLbl=1;" vertex="1" parent="WIyWlLk6GJQsqaUBKTNV-1">
          <mxGeometry x="245" y="-730" width="300" height="80" as="geometry" />
        </mxCell>
        <mxCell id="d7tN3AXUyghyacwVmcYG-5" value="" style="ellipse;whiteSpace=wrap;html=1;aspect=fixed;fillColor=#000000;" vertex="1" parent="WIyWlLk6GJQsqaUBKTNV-1">
          <mxGeometry x="370" y="-630" width="50" height="50" as="geometry" />
        </mxCell>
      </root>
    </mxGraphModel>
  </diagram>
</mxfile>
